/* XPM */
static char *Block[]={
"16 16 4 1",
". c None",
"# c #000000",
"a c #dcdcdc",
"b c #ff0000",
"................",
"................",
"................",
"................",
".....###########",
"....#aaaaaaaaa##",
"...#aaaaaaaaa#a#",
"..#aaaaaaaaa#aa#",
".############aa#",
".#aaaaaaaaaa#aa#",
".#aaaaaaaaba#aa#",
".#aaaaaaaaaa#aa#",
".#aaaaaaaaaa#a#.",
".#aaaaaaaaaa##..",
".############...",
"................"};
