/* XPM */
static char * xpmFolderDebug[] = {
"16 16 10 1",
" 	c None",
".	c #000000",
"+	c #585858",
"@	c #C0C000",
"#	c #FFFF00",
"$	c #FFFFFF",
"%	c #FD0808",
"&	c #C0C0C0",
"*	c #A0A0A4",
"=	c #808080",
"  ...           ",
" .+@#..         ",
" .$++@#.....    ",
" .$$%++@@###.   ",
" .$&%&&+@@@%%   ",
" .&$&%&&++%%@.  ",
" .$&&%&&&%*&.@+ ",
" .&&&&%%%%&*.@+ ",
" .&&&&%%*&**.@+ ",
" .&&%%&%&***.@+ ",
" ..%%&*&%***.@+ ",
"   ..=&*%%**.@+ ",
"     ..*****.@+ ",
"       ..***.@..",
"         ..*.@..",
"           .... "};
