/* XPM */
static const char * xpmFolderOpenDropTarget[] = {
"16 16 20 1",
" 	c None",
".	c #000000",
"+	c #001BB7",
"@	c #4F62D1",
"#	c #808080",
"$	c #00010A",
"%	c #A0A0A4",
"&	c #303030",
"*	c #474C69",
"=	c #0F23B0",
"-	c #1023B0",
";	c #3135A4",
">	c #C0C0C0",
",	c #485497",
"'	c #DCDCDC",
")	c #FFFFFF",
"!	c #585858",
"~	c #403E9F",
"{	c #787FA8",
"]	c #3035A4",
"    ...         ",
"    .+@..       ",
"    .+@+#....   ",
"... $+@@@@@@+.  ",
".%%&*=-+@@@@@+. ",
".#%%%#+-+;@@@+#.",
" &%%%%##++-+@+#.",
" .#%%>>%#,-+++#.",
"  &%>%>>>>##++#.",
"  .#>>>>'>'%++#.",
"   &#'>>>')@!~#.",
"    .&%''))){]#.",
"      .&>)))@!#.",
"        .&>))##.",
"          .&>)#.",
"            .&&."};


