/* XPM */
static char * xpmFolderHidden[] = {
"16 16 9 1",
" 	g None",
".	g #000000",
"+	g #585858",
"@	g #ABABAB",
"#	g #E3E3E3",
"$	g #FFFFFF",
"%	g #C0C0C0",
"&	g #A0A0A0",
"*	g #808080",
"  ...           ",
" .+@#..         ",
" .$++@#.....    ",
" .$$%++@@###.   ",
" .$%$%%+@@@@+   ",
" .%$%%%%++++@.  ",
" .$%%%%%%%&%.@+ ",
" .%%%%%%%&%&.@+ ",
" .%%%%%%&%&&.@+ ",
" .%%%%%&%&&&.@+ ",
" ..*%%&%&&&&.@+ ",
"   ..*%&&&&&.@+ ",
"     ..&&&&&.@+ ",
"       ..&&&.@..",
"         ..&.@..",
"           .... "};
