/* XPM */
static char *Link[]={
"16 16 3 1",
"a c None",
". c None",
"# c #000000",
"................",
"........#######.",
".....aaa#######.",
"....aaa.aaa####.",
"....a.....##.##.",
".........##..##.",
"......aa##a..##.",
"......a##a...##.",
"......##........",
".....##a........",
"....##aa........",
"...##.a.........",
"..##..aa........",
"..#...aa........",
"................",
"................"};
