/* XPM */
static char * xpmSherpa[] = {
"48 48 116 2",
"  	c None",
". 	c #11C7DB",
"+ 	c #23CBDD",
"@ 	c #1AC9DC",
"# 	c #3ED1E1",
"$ 	c #42D2E1",
"% 	c #31CEDF",
"& 	c #73DDE8",
"* 	c #39D0E0",
"= 	c #2FCEDF",
"- 	c #6FDCE8",
"; 	c #2ECDDF",
"> 	c #5FD9E5",
", 	c #77DEE9",
"' 	c #2ACCDE",
") 	c #36CFE0",
"! 	c #55D6E4",
"~ 	c #1FCADD",
"{ 	c #3DD1E1",
"] 	c #C0EFF3",
"^ 	c #D9F5F7",
"/ 	c #28CCDE",
"( 	c #CDF2F5",
"_ 	c #6ADBE7",
": 	c #68DBE7",
"< 	c #58D7E4",
"[ 	c #A7E9F0",
"} 	c #B4ECF1",
"| 	c #86E1EB",
"1 	c #7EDFE9",
"2 	c #8EE3EC",
"3 	c #87E2EB",
"4 	c #1CC9DC",
"5 	c #8BE3EC",
"6 	c #72DDE8",
"7 	c #95E5ED",
"8 	c #93E5ED",
"9 	c #7ADFE9",
"0 	c #C7F1F4",
"a 	c #AEEBF1",
"b 	c #5CD8E5",
"c 	c #91E4EC",
"d 	c #D6F4F6",
"e 	c #BFEFF3",
"f 	c #67DBE7",
"g 	c #D4F0F2",
"h 	c #BFDCDE",
"i 	c #92AFB1",
"j 	c #B8D5D7",
"k 	c #ADCACC",
"l 	c #BDDADC",
"m 	c #CDE9EB",
"n 	c #A6C4C6",
"o 	c #BAEDF2",
"p 	c #D7F3F5",
"q 	c #D5F2F4",
"r 	c #CFEBED",
"s 	c #A2BFC1",
"t 	c #9FBCBE",
"u 	c #83A2A4",
"v 	c #98B5B7",
"w 	c #6E8D8F",
"x 	c #96B4B6",
"y 	c #B5D2D4",
"z 	c #8EACAE",
"A 	c #A0BDBF",
"B 	c #B1CED0",
"C 	c #A4C2C4",
"D 	c #708F91",
"E 	c #82A0A2",
"F 	c #99B7B9",
"G 	c #7C9A9C",
"H 	c #98B6B8",
"I 	c #C0DDDF",
"J 	c #91AFB1",
"K 	c #D4F3F6",
"L 	c #79DFE9",
"M 	c #89E2EB",
"N 	c #C5F0F4",
"O 	c #D8F4F6",
"P 	c #D6F2F4",
"Q 	c #D7F4F6",
"R 	c #C3E0E2",
"S 	c #B3CFD1",
"T 	c #C2DFE1",
"U 	c #D2EEF0",
"V 	c #B3D0D2",
"W 	c #69888A",
"X 	c #628183",
"Y 	c #789698",
"Z 	c #9AB8BA",
"` 	c #759496",
" .	c #A3C0C2",
"..	c #88A6A8",
"+.	c #739294",
"@.	c #97B5B7",
"#.	c #ACC9CB",
"$.	c #C3F0F4",
"%.	c #49D4E2",
"&.	c #C8F1F4",
"*.	c #4F6E70",
"=.	c #C4E0E2",
"-.	c #607F81",
";.	c #B7D4D6",
">.	c #AFCCCE",
",.	c #3C5C5E",
"'.	c #769597",
").	c #5F7E80",
"!.	c #89A7A9",
"~.	c #D5F4F6",
"{.	c #D1F3F6",
"].	c #CFECEE",
"^.	c #B0CDCF",
"/.	c #8AA8AA",
"(.	c #58787A",
"_.	c #A9EAF0",
". . . . . . . . . . . . . . . . . . . . . . . . . . . . . . . . . . . . . . . . . . . . . . . . ",
". . . . . . . . . . . . . . . . . . . . . . . . . . . . . . . . . . . . . . . . . . . . . . . . ",
". . . . . . . . . . . . . . . . . . . . . . . . . . . . . . . . . . . . . . . . . . . . . . . . ",
". . . . . . . . . . . . . . . . . . . . . . . . . . . . . . . . . . . . . . . . . . . . . . . . ",
". . . . . . . . . . . . . . . . . . . . . . . . . . . . . . . . . . . . . . . . . . . . . . . . ",
". . . . . . . . . . . . . . . . . . . . . . . . . . . . . . . . . . . . . . . . . . . . . . . . ",
". . . . . . . . . . . . . . . . . . . . . . . . . . . . . . . . . . . . . . . . . . . . . . . . ",
". . . . . . . . . . . . . . . . . . . . . . . . . . . . . . . . . . . . . . . . . . . . . . . . ",
". . . . . . . . . . . . . . . . . . . . . . . . . . . . . . . . . . . . . . . . . . . . . . . . ",
". . . . . . . . . . . . . . . . . . . . . . . . + @ # . . . . . . . . . . . . . . . . . . . . . ",
". . . . . . . . . . . . . . . . . . . . . $ % & * = - . . . . . . . . . . . . . . . . . . . . . ",
". . . . . . . . . . . . . . . . . . . . . ; > , ' ) ! . . . . . . . . . . . . . . . . . . . . . ",
". . . . . . . . . . . . . . . . . . . . ~ . { ] ^ ^ ^ ^ . . . . . . . . . . . . . . . . . . . . ",
". . . . . . . . . . . . . . . . . . . . / ( ^ ^ ^ ^ ^ ^ ^ ^ ^ ^ . . . . . . . . . . . . . . . . ",
". . . . . . . . . . . . . . . . . . . . _ ^ ^ ^ ^ ^ ^ ^ ^ ^ ^ ^ : < . . . . . . . . . . . . . . ",
". . . . . . . . . . . . . . . . . . . ' [ ^ ^ ^ ^ ^ ^ ^ ^ ^ ^ ^ } | . . . . . . . . . . . . . . ",
". . . . . . . . . . . . . . . . . . . ^ ^ ^ ^ ^ ^ ^ ^ ^ ^ ^ ^ ^ ^ ] 1 . . . . . . . . . . . . . ",
". . . . . . . . . . . . . . . . . . ^ ^ ^ ^ ^ ^ ^ ^ ^ ^ ^ ^ ^ ^ ^ ^ 2 . . . . . . . . . . . . . ",
". . . . . . . . . . . . . . . . . . ^ ^ ^ ^ ^ ^ ^ ^ ^ ^ ^ ^ ^ ^ ^ ^ ^ . . . . . . . . . . . . . ",
". . . . . . . . . . . . . . . . . ^ ^ ^ ^ ^ ^ ^ ^ ^ ^ ^ ^ ^ ^ ^ ^ ^ ^ ^ . . . . . . . . . . . . ",
". . . . . . . . . . . . . . . . ^ ^ ^ ^ ^ ^ ^ ^ ^ ^ ^ ^ ^ ^ ^ ^ ^ ^ ^ ^ . . . . . . . . . . . . ",
". . . . . . . . . . . . . . . ^ ^ ^ ^ ^ ^ ^ ^ ^ ^ ^ ^ ^ ^ ^ ^ ^ ^ ^ ^ ^ . . . . . . . . . . . . ",
". . . . . . . . . . . . . . . ^ ^ ^ ^ ^ ^ ^ ^ ^ ^ ^ ^ ^ ^ ^ ^ ^ ^ ^ ^ ^ ^ 3 4 . . . . . . . . . ",
". . . . . . . . . . . . . ^ ^ ^ ^ ^ ^ ^ ^ ^ ^ ^ ^ ^ ^ ^ ^ ^ ^ ^ ^ ^ ^ ^ ^ 5 6 . . . . . . . . . ",
". . . . . . . . . . . . . ^ ^ ^ ^ ^ ^ ^ ^ ^ ^ ^ ^ ^ ^ ^ ^ ^ ^ ^ ^ ^ ^ ^ ^ 7 8 9 . . . . . . . . ",
". . . . . . . . . ) 9 ^ ^ ^ ^ ^ ^ ^ ^ ^ ^ ^ ^ ^ ^ ^ ^ ^ ^ ^ ^ ^ ^ ^ ^ ^ ^ 0 a ^ b . . . . . . . ",
". . . . . . . . . c 5 ^ ^ ^ ^ ^ ^ ^ ^ ^ ^ ^ ^ ^ ^ ^ ^ ^ ^ ^ ^ ^ ^ ^ ^ ^ ^ ^ d ^ e 4 . . . . . . ",
". . . . . . . . f g h ^ i h j k l m n ^ ^ ^ ^ ^ ^ ^ ^ ^ ^ ^ ^ ^ ^ ^ ^ ^ ^ ^ ^ ^ d 6 . . . . . . ",
". . . . . . . 4 o p q r p g s t u v w x y z A j B B B j C D E C F G H I J ^ ^ K ^ L . . . . . . ",
". . . . . b M N p O P Q g P R R S A T U V j A W X X X W Y z Z `  ...C Y +.^ @.#.$.K %.. . . . . ",
". . . . . b &.O O O ^ u *.=. .G -.-.;.>.H X ,.,.,.,.,.,.,.,.,.,.,.,.,.,.*.'.).^ !.~.{.4 . . . . ",
". . . . $ 9 e ].^./.,.,.,.,.,.,.,.,.,.,.,.,.,.,.,.,.,.,.,.,.,.,.,.,.,.,.,.,.,.(.^ '.d _.. . . . ",
",.,.,.,.X D *.,.,.,.,.,.,.,.,.,.,.,.,.,.,.,.,.,.,.,.,.,.,.,.,.,.,.,.,.,.,.,.,.,.,.^ D ( . . . . ",
",.,.,.,.,.,.,.,.,.,.,.,.,.,.,.,.,.,.,.,.,.,.,.,.,.,.,.,.,.,.,.,.,.,.,.,.,.,.,.,.,.,.,.,.,.. . . ",
",.,.,.,.,.,.,.,.,.,.,.,.,.,.,.,.,.,.,.,.,.,.,.,.,.,.,.,.,.,.,.,.,.,.,.,.,.,.,.,.,.,.,.,.,.,.. . ",
",.,.,.,.,.,.,.,.,.,.,.,.,.,.,.,.,.,.,.,.,.,.,.,.,.,.,.,.,.,.,.,.,.,.,.,.,.,.,.,.,.,.,.,.,.,.,.,.",
",.,.,.,.,.,.,.,.,.,.,.,.,.,.,.,.,.,.,.,.,.,.,.,.,.,.,.,.,.,.,.,.,.,.,.,.,.,.,.,.,.,.,.,.,.,.,.,.",
",.,.,.,.,.,.,.,.,.,.,.,.,.,.,.,.,.,.,.,.,.,.,.,.,.,.,.,.,.,.,.,.,.,.,.,.,.,.,.,.,.,.,.,.,.,.,.,.",
",.,.,.,.,.,.,.,.,.,.,.,.,.,.,.,.,.,.,.,.,.,.,.,.,.,.,.,.,.,.,.,.,.,.,.,.,.,.,.,.,.,.,.,.,.,.,.,.",
",.,.,.,.,.,.,.,.,.,.,.,.,.,.,.,.,.,.,.,.,.,.,.,.,.,.,.,.,.,.,.,.,.,.,.,.,.,.,.,.,.,.,.,.,.,.,.,.",
",.,.,.,.,.,.,.,.,.,.,.,.,.,.,.,.,.,.,.,.,.,.,.,.,.,.,.,.,.,.,.,.,.,.,.,.,.,.,.,.,.,.,.,.,.,.,.,.",
",.,.,.,.,.,.,.,.,.,.,.,.,.,.,.,.,.,.,.,.,.,.,.,.,.,.,.,.,.,.,.,.,.,.,.,.,.,.,.,.,.,.,.,.,.,.,.,.",
",.,.,.,.,.,.,.,.,.,.,.,.,.,.,.,.,.,.,.,.,.,.,.,.,.,.,.,.,.,.,.,.,.,.,.,.,.,.,.,.,.,.,.,.,.,.,.,.",
",.,.,.,.,.,.,.,.,.,.,.,.,.,.,.,.,.,.,.,.,.,.,.,.,.,.,.,.,.,.,.,.,.,.,.,.,.,.,.,.,.,.,.,.,.,.,.,.",
",.,.,.,.,.,.,.,.,.,.,.,.,.,.,.,.,.,.,.,.,.,.,.,.,.,.,.,.,.,.,.,.,.,.,.,.,.,.,.,.,.,.,.,.,.,.,.,.",
",.,.,.,.,.,.,.,.,.,.,.,.,.,.,.,.,.,.,.,.,.,.,.,.,.,.,.,.,.,.,.,.,.,.,.,.,.,.,.,.,.,.,.,.,.,.,.,.",
",.,.,.,.,.,.,.,.,.,.,.,.,.,.,.,.,.,.,.,.,.,.,.,.,.,.,.,.,.,.,.,.,.,.,.,.,.,.,.,.,.,.,.,.,.,.,.,.",
",.,.,.,.,.,.,.,.,.,.,.,.,.,.,.,.,.,.,.,.,.,.,.,.,.,.,.,.,.,.,.,.,.,.,.,.,.,.,.,.,.,.,.,.,.,.,.,."};
